<svg width="68" height="68" viewBox="0 0 68 68" fill="none" xmlns="http://www.w3.org/2000/svg">
<path d="M18.1334 19.8334C17.17 21.3917 17 22.5817 17 23.7434C17 25.9251 19.8334 31.1667 19.8334 34.0001C19.8334 36.6917 18.7 38.2501 18.7 38.2501H14.45C14.45 38.2501 15.5834 36.6917 15.5834 34.0001C15.5834 31.1667 12.75 25.9251 12.75 23.7434C12.75 22.5817 12.92 21.3917 13.8834 19.8334H18.1334ZM32.3 19.8334C31.3367 21.3917 31.1667 22.5817 31.1667 23.7434C31.1667 25.9251 34 31.1667 34 34.0001C34 36.6917 32.8667 38.2501 32.8667 38.2501H37.1167C37.1167 38.2501 38.25 36.6917 38.25 34.0001C38.25 31.1667 35.4167 25.9251 35.4167 23.7434C35.4167 22.5817 35.5867 21.3917 36.55 19.8334H32.3ZM23.0917 19.8334C22.1284 21.3917 21.9584 22.5817 21.9584 23.7434C21.9584 25.9251 24.7917 31.1951 24.7917 34.0001C24.7917 36.6917 23.6584 38.2501 23.6584 38.2501H27.9084C27.9084 38.2501 29.0417 36.6917 29.0417 34.0001C29.0417 31.1667 26.2084 25.9251 26.2084 23.7434C26.2084 22.5817 26.3784 21.3917 27.3417 19.8334H23.0917ZM60.8317 18.4167C60.8317 18.4167 61.2 15.4134 61.2 14.1667C61.2 9.49175 57.375 5.66675 52.7 5.66675C48.3367 5.66675 44.7384 8.95342 44.2567 13.1751L41.1684 42.5001H11.3617C9.66171 42.5001 8.27338 44.0017 8.52838 45.7017C10.0017 55.1367 18.105 62.3334 27.625 62.3334C37.485 62.3334 45.5884 54.5984 46.6367 44.6818L49.895 13.8834C50.0367 12.4384 51.2267 11.3334 52.7 11.3334C54.2584 11.3334 55.5334 12.6084 55.5334 14.1667C55.5334 15.0167 55.25 17.7084 55.25 17.7084L60.8317 18.4167Z" fill="#CF6F92"/>
</svg>
