<svg width="68" height="68" viewBox="0 0 68 68" fill="none" xmlns="http://www.w3.org/2000/svg">
<path d="M66.0891 24.679C65.0042 26.1385 63.0465 27.5317 60.2161 28.8585C57.3857 30.1854 54.5199 31.28 51.6188 32.1424C48.7177 33.0049 45.734 34.0995 42.6677 35.4263C39.6015 36.7532 37.3843 38.1021 36.0163 39.4732C34.1766 41.375 31.7589 44.1724 28.7634 47.8654C25.768 51.5584 22.8668 55.2514 20.06 58.9444C17.2532 62.6374 15.6611 64.7271 15.2837 65.2137C13.9629 66.8058 12.076 67.7015 9.62297 67.9005C7.16997 68.0995 5.04718 67.5356 3.2546 66.2088C1.41485 64.7935 0.353455 62.8585 0.0704167 60.4039C-0.212622 57.9493 0.494975 55.7711 2.19321 53.8693C3.04232 52.9847 5.31842 51.0498 9.02151 48.0644C12.7246 45.079 16.4041 41.961 20.06 38.7102C23.7159 35.4595 26.2633 32.8059 27.7021 30.7493C29.1408 28.6927 30.2966 26.5476 31.1693 24.3141C32.042 22.0806 32.785 19.8472 33.3982 17.6137C34.0115 15.3802 34.6011 13.6442 35.1672 12.4059C35.3559 11.7424 36.6767 10.3714 39.1297 8.29268C41.5827 6.21398 43.965 4.31219 46.2765 2.58732L49.8144 0H54.343L49.8144 12.7376C49.8144 12.8702 49.8026 13.025 49.7791 13.202C49.7555 13.3789 49.7908 13.7106 49.8852 14.1971C49.9795 14.6836 50.1564 15.1148 50.4159 15.4907C50.6753 15.8667 51.1471 16.2094 51.8311 16.519C52.5151 16.8286 53.3524 16.9834 54.343 16.9834C55.3337 16.9834 56.1828 16.8839 56.8904 16.6849C57.598 16.4859 58.0697 16.2979 58.3056 16.121L58.5886 15.8556L63.4003 4.24585H65.6646C67.127 8.66862 67.8817 12.9145 67.9289 16.9834C67.9761 20.3447 67.3628 22.9099 66.0891 24.679ZM9.09227 55.1961C7.84218 55.1961 6.76899 55.6052 5.87271 56.4234C4.97642 57.2416 4.52827 58.2478 4.52827 59.4419C4.52827 60.6361 4.97642 61.6423 5.87271 62.4605C6.76899 63.2787 7.84218 63.6878 9.09227 63.6878C10.3424 63.6878 11.4038 63.2787 12.2765 62.4605C13.1492 61.6423 13.5855 60.6361 13.5855 59.4419C13.5855 58.2478 13.1492 57.2416 12.2765 56.4234C11.4038 55.6052 10.3424 55.1961 9.09227 55.1961Z" fill="#2A167B"/>
</svg>
