<svg width="68" height="68" viewBox="0 0 68 68" fill="none" xmlns="http://www.w3.org/2000/svg">
<path d="M58.9331 36.2665C58.9331 51.2719 49.0051 63.4665 33.9997 63.4665C18.9944 63.4665 9.06641 51.2719 9.06641 36.2665C14.0748 36.3088 18.9462 37.9063 23.007 40.8381C27.0677 43.77 30.117 47.8912 31.7331 52.6319V31.7332H20.3997C18.5963 31.7332 16.8667 31.0168 15.5914 29.7415C14.3162 28.4663 13.5997 26.7367 13.5997 24.9332V11.3332C13.5997 10.8575 13.7494 10.3938 14.0276 10.0079C14.3058 9.62194 14.6983 9.3333 15.1496 9.18286C15.6009 9.03242 16.0882 9.0278 16.5423 9.16965C16.9963 9.3115 17.3943 9.59263 17.6797 9.97321L24.6157 19.0399L32.0957 5.43988C32.3012 5.12176 32.5831 4.8602 32.9157 4.67908C33.2483 4.49797 33.621 4.40308 33.9997 4.40308C34.3785 4.40308 34.7511 4.49797 35.0837 4.67908C35.4163 4.8602 35.6983 5.12176 35.9037 5.43988L43.3837 19.0399L50.3197 9.97321C50.6052 9.59263 51.0031 9.3115 51.4572 9.16965C51.9113 9.0278 52.3985 9.03242 52.8499 9.18286C53.3012 9.3333 53.6937 9.62194 53.9719 10.0079C54.2501 10.3938 54.3997 10.8575 54.3997 11.3332V24.9332C54.3997 26.7367 53.6833 28.4663 52.4081 29.7415C51.1328 31.0168 49.4032 31.7332 47.5997 31.7332H36.2664V52.6319C37.8825 47.8912 40.9318 43.77 44.9925 40.8381C49.0533 37.9063 53.9247 36.3088 58.9331 36.2665Z" fill="#6FCF97"/>
</svg>
