<svg width="68" height="68" viewBox="0 0 68 68" fill="none" xmlns="http://www.w3.org/2000/svg">
<path d="M66.0895 24.679C65.0045 26.1385 63.0468 27.5317 60.2165 28.8585C57.3861 30.1854 54.5203 31.28 51.6192 32.1424C48.718 33.0049 45.7343 34.0995 42.6681 35.4263C39.6018 36.7532 37.3847 38.1021 36.0167 39.4732C34.1769 41.375 31.7593 44.1724 28.7638 47.8654C25.7683 51.5584 22.8672 55.2514 20.0604 58.9444C17.2536 62.6374 15.6615 64.7271 15.2841 65.2137C13.9633 66.8058 12.0763 67.7015 9.62333 67.9005C7.17033 68.0995 5.04754 67.5356 3.25497 66.2088C1.41522 64.7935 0.353821 62.8585 0.0707829 60.4039C-0.212256 57.9493 0.495341 55.7711 2.19357 53.8693C3.04269 52.9847 5.31879 51.0498 9.02188 48.0644C12.725 45.079 16.4045 41.961 20.0604 38.7102C23.7163 35.4595 26.2636 32.8059 27.7024 30.7493C29.1412 28.6927 30.2969 26.5476 31.1696 24.3141C32.0423 22.0806 32.7853 19.8472 33.3986 17.6137C34.0118 15.3802 34.6015 13.6442 35.1676 12.4059C35.3563 11.7424 36.6771 10.3714 39.1301 8.29268C41.5831 6.21398 43.9653 4.31219 46.2768 2.58732L49.8148 0H54.3434L49.8148 12.7376C49.8148 12.8702 49.803 13.025 49.7794 13.202C49.7558 13.3789 49.7912 13.7106 49.8856 14.1971C49.9799 14.6836 50.1568 15.1148 50.4163 15.4907C50.6757 15.8667 51.1474 16.2094 51.8314 16.519C52.5155 16.8286 53.3528 16.9834 54.3434 16.9834C55.334 16.9834 56.1832 16.8839 56.8908 16.6849C57.5984 16.4859 58.0701 16.2979 58.306 16.121L58.589 15.8556L63.4006 4.24585H65.665C67.1273 8.66862 67.8821 12.9145 67.9293 16.9834C67.9764 20.3447 67.3632 22.9099 66.0895 24.679ZM9.09264 55.1961C7.84255 55.1961 6.76936 55.6052 5.87307 56.4234C4.97678 57.2416 4.52864 58.2478 4.52864 59.4419C4.52864 60.6361 4.97678 61.6423 5.87307 62.4605C6.76936 63.2787 7.84255 63.6878 9.09264 63.6878C10.3427 63.6878 11.4041 63.2787 12.2768 62.4605C13.1495 61.6423 13.5859 60.6361 13.5859 59.4419C13.5859 58.2478 13.1495 57.2416 12.2768 56.4234C11.4041 55.6052 10.3427 55.1961 9.09264 55.1961Z" fill="#2A167B"/>
</svg>
