<svg width="45" height="45" viewBox="0 0 45 45" fill="none" xmlns="http://www.w3.org/2000/svg">
<g clip-path="url(#clip0_247_814)">
<path d="M17.0914 1.40816e-06C16.8402 0.0373564 16.6003 0.129536 16.3887 0.270001C16.3887 0.270001 14.1993 1.64769 11.8454 3.13789C9.49159 4.62635 6.87293 6.26712 6.27409 6.59942C6.23715 6.61546 6.20078 6.63278 6.16505 6.65135C3.9912 7.99269 3.53947 10.1838 3.46159 11.4127C3.45639 11.4698 3.46159 11.5165 3.46159 11.5771C3.44255 12.0375 3.46159 12.3335 3.46159 12.3335V34.9425C3.46159 38.2275 7.29178 39.8077 10.9264 39.8077C12.1379 39.8077 13.3495 39.6121 14.3879 39.266C15.0802 38.9198 15.577 38.2275 15.577 37.5352V19.3621C15.577 15.3813 16.4424 13.5121 19.0385 11.9544C19.7308 11.6083 26.9897 6.59769 26.9897 6.59769C27.3358 6.25154 27.6924 5.54885 27.6924 5.02962V4.86692C27.6924 4.17462 27.3462 3.645 26.827 3.29885C26.3077 2.95269 25.6154 2.95269 25.0962 3.29885C24.9231 3.47192 14.3654 10.5802 12.1154 11.7917C9.86543 13.1763 7.76601 13.5104 7.24678 12.8181C7.08582 12.6571 6.94563 12.1638 6.92313 11.6827V11.629V11.5737C6.92486 11.1029 7.04601 10.2167 8.00486 9.62654C8.97755 9.08481 11.392 7.54269 13.7389 6.05769C14.7306 5.42942 14.8535 5.36192 15.6306 4.86692C15.7329 5.28974 15.9907 5.65853 16.3526 5.89988C16.7145 6.14123 17.1541 6.23744 17.5837 6.16936C18.0134 6.10128 18.4016 5.8739 18.6712 5.53248C18.9408 5.19107 19.0719 4.76065 19.0385 4.32692V1.73077C19.0404 1.48408 18.9896 1.23982 18.8894 1.01437C18.7893 0.788922 18.642 0.587497 18.4577 0.423596C18.2733 0.259695 18.056 0.137108 17.8203 0.0640506C17.5847 -0.00900632 17.3362 -0.0308441 17.0914 1.40816e-06ZM30.9375 6.05769C30.6623 6.10347 30.4022 6.2151 30.1795 6.38308C30.1795 6.38308 21.4668 12.2452 19.9576 13.2508C19.9393 13.2688 19.9214 13.2873 19.9039 13.3062C18.6508 14.246 17.9083 15.364 17.5777 16.3869C17.3441 17.1121 17.3095 17.704 17.3077 18.1731V18.7148C17.3052 18.7684 17.3052 18.8221 17.3077 18.8758V39.8077C17.3077 43.0962 21.0947 45 24.5562 45C26.1139 45 27.5193 44.6642 28.5577 43.9719C30.6347 42.7604 40.6731 34.9408 40.6731 34.9408C41.1924 34.5946 41.5385 34.1065 41.5385 33.5873V11.0873C41.5385 10.2219 41.2027 9.70269 40.5104 9.35654C39.9912 9.01039 39.1379 9.17308 38.6187 9.51923C35.8495 11.5962 28.3951 17.46 26.6643 18.4985C24.2412 19.8831 21.9583 20.2292 21.0929 19.3638C20.7468 19.0177 20.7693 18.6923 20.7693 18.1731C20.7797 17.8754 20.8125 17.6192 20.8783 17.415C20.9752 17.1138 21.1726 16.7435 21.9047 16.1723C21.9393 16.1446 21.922 16.1463 21.9583 16.1187C23.2097 15.2827 27.0364 12.6744 29.5322 10.9783C29.6736 11.3576 29.9435 11.6754 30.2949 11.8763C30.6463 12.0772 31.0571 12.1486 31.4557 12.078C31.8543 12.0074 32.2156 11.7993 32.4767 11.4899C32.7378 11.1806 32.8821 10.7894 32.8847 10.3846V7.78846C32.8866 7.54177 32.8358 7.29751 32.7356 7.07206C32.6354 6.84661 32.4882 6.64519 32.3038 6.48129C32.1194 6.31739 31.9021 6.1948 31.6665 6.12174C31.4308 6.04869 31.1823 6.02685 30.9375 6.05769ZM38.077 18.7148V22.1763L29.4231 28.8813V25.4198L38.077 18.7148Z" fill="#6FCF97"/>
</g>
<defs>
<clipPath id="clip0_247_814">
<rect width="45" height="45" fill="white"/>
</clipPath>
</defs>
</svg>
