<svg width="1064" height="255" viewBox="0 0 1064 255" fill="none" xmlns="http://www.w3.org/2000/svg">
<g clip-path="url(#clip0_585_848)">
<path d="M1011.24 254.819H52.4912C23.5006 254.819 0 231.319 0 202.332V52.4863C0 23.4984 23.5021 0 52.4912 0H1011.24C1040.23 0 1063.73 23.4999 1063.73 52.4863V202.331C1063.73 231.319 1040.23 254.819 1011.24 254.819Z" fill="white"/>
<path d="M205.662 127.468C205.662 88.171 173.964 56.335 134.875 56.335C130.54 56.335 126.215 56.7335 121.953 57.5231C109.78 59.7824 107.086 76.1042 117.8 82.2305C129.24 88.7718 136.446 100.961 136.446 114.417C136.446 137.625 115.452 155.117 92.6824 150.76C80.6009 148.448 72.0767 162.589 79.8937 172.267C93.1274 188.654 113.099 198.602 134.875 198.602C173.982 198.602 205.662 166.748 205.662 127.468ZM192.389 127.468C192.389 159.389 166.64 185.265 134.875 185.265C116.838 185.265 100.744 176.919 90.1981 163.862C121.059 169.768 149.717 146.052 149.717 114.417C149.717 95.6577 139.504 79.2984 124.363 70.6386C127.771 70.0064 131.284 69.6723 134.874 69.6723C166.64 69.6738 192.389 95.5498 192.389 127.468Z" fill="#FE5E41"/>
<path d="M343.485 190.676H312.22V64.4646H343.485C353.583 64.4646 361.22 66.8594 366.398 71.6489C371.707 76.4385 374.361 83.105 374.361 91.6486V163.492C374.361 172.165 371.771 178.897 366.593 183.685C361.415 188.346 353.711 190.676 343.485 190.676ZM360.767 163.492V91.6486C360.767 87.5063 359.213 83.8817 356.107 80.775C353.128 77.6682 348.921 76.1149 343.485 76.1149H325.813V179.026H343.485C348.921 179.026 353.128 177.537 356.107 174.56C359.213 171.454 360.767 167.764 360.767 163.492ZM473.375 88.736V166.405C473.375 175.078 470.591 181.81 465.025 186.598C459.587 191.259 451.367 193.589 440.363 193.589C429.487 193.589 421.267 191.259 415.701 186.598C410.133 181.81 407.35 175.078 407.35 166.405V88.736C407.35 80.063 410.068 73.3965 415.506 68.7363C421.073 63.9468 429.294 61.552 440.168 61.552C451.172 61.552 459.458 63.9468 465.025 68.7363C470.591 73.3965 473.375 80.063 473.375 88.736ZM459.782 166.405V88.736C459.782 78.3802 453.309 73.2023 440.363 73.2023C427.417 73.2023 420.944 78.3802 420.944 88.736V166.405C420.944 176.76 427.417 181.938 440.363 181.938C453.309 181.938 459.782 176.76 459.782 166.405ZM540.519 190.676H509.254V64.4646H540.519C550.617 64.4646 558.255 66.8594 563.434 71.6489C568.741 76.4385 571.395 83.105 571.395 91.6486V163.492C571.395 172.165 568.805 178.897 563.627 183.685C558.449 188.346 550.747 190.676 540.519 190.676ZM557.801 163.492V91.6486C557.801 86.7296 556.313 82.9109 553.336 80.1925C550.357 77.4741 546.085 76.1149 540.519 76.1149H522.847V179.026H540.519C552.042 179.026 557.801 173.848 557.801 163.492ZM670.409 88.736V166.405C670.409 175.078 667.627 181.81 662.059 186.598C656.622 191.259 648.401 193.589 637.397 193.589C626.523 193.589 618.301 191.259 612.735 186.598C607.168 181.81 604.384 175.078 604.384 166.405V88.736C604.384 80.063 607.104 73.3965 612.54 68.7363C618.108 63.9468 626.328 61.552 637.203 61.552C648.208 61.552 656.492 63.9468 662.059 68.7363C667.627 73.3965 670.409 80.063 670.409 88.736ZM656.816 166.405V88.736C656.816 78.3802 650.343 73.2023 637.397 73.2023C624.451 73.2023 617.978 78.3802 617.978 88.736V166.405C617.978 176.76 624.451 181.938 637.397 181.938C650.343 181.938 656.816 176.76 656.816 166.405ZM753.866 166.405V155.725H767.459V166.405C767.459 175.078 764.806 181.81 759.497 186.598C754.19 191.259 746.227 193.589 735.611 193.589C724.997 193.589 716.97 191.259 711.532 186.598C706.094 181.81 703.376 175.078 703.376 166.405V88.736C703.376 80.063 706.03 73.3965 711.337 68.7363C716.646 63.9468 724.607 61.552 735.223 61.552C745.839 61.552 753.866 63.9468 759.303 68.7363C764.74 73.3965 767.459 80.063 767.459 88.736V107.182H753.866V88.736C753.866 78.3802 747.717 73.2023 735.418 73.2023C723.119 73.2023 716.97 78.3802 716.97 88.736V166.405C716.97 176.76 723.119 181.938 735.418 181.938C747.717 181.938 753.866 176.76 753.866 166.405ZM815.081 190.676H801.487V64.4646H815.081V120.774H853.336V64.4646H866.929V190.676H853.336V132.425H815.081V190.676ZM968.901 88.736V166.405C968.901 175.078 966.117 181.81 960.551 186.598C955.113 191.259 946.893 193.589 935.889 193.589C925.014 193.589 916.794 191.259 911.226 186.598C905.659 181.81 902.877 175.078 902.877 166.405V88.736C902.877 80.063 905.595 73.3965 911.032 68.7363C916.599 63.9468 924.819 61.552 935.694 61.552C946.698 61.552 954.984 63.9468 960.551 68.7363C966.117 73.3965 968.901 80.063 968.901 88.736ZM955.308 166.405V88.736C955.308 78.3802 948.835 73.2023 935.889 73.2023C922.943 73.2023 916.47 78.3802 916.47 88.736V166.405C916.47 176.76 922.943 181.938 935.889 181.938C948.835 181.938 955.308 176.76 955.308 166.405Z" fill="black"/>
</g>
<defs>
<clipPath id="clip0_585_848">
<rect width="1064" height="255" fill="white"/>
</clipPath>
</defs>
</svg>
