<svg width="58" height="58" viewBox="0 0 58 58" fill="none" xmlns="http://www.w3.org/2000/svg">
<path d="M29 24.9088C32.2526 24.9088 34.9832 27.1128 35.7546 30.0928C36.7244 33.8292 36.5933 37.924 40.8563 40.0502C44.6402 41.3378 46.0717 42.956 46.0717 47.2944C46.0717 50.757 43.109 54.4377 39.2892 54.8971C35.018 55.5386 31.6935 54.6999 28.9988 53.164C26.3041 54.6999 22.9784 55.5397 18.7131 54.8971C14.8909 54.4377 11.9294 50.7443 11.9294 47.2944C11.9294 43.0488 13.4571 41.252 17.2341 40.0212C21.8822 37.6467 21.2581 33.4846 22.2952 29.9095C22.7215 28.4629 23.6054 27.1936 24.8143 26.2919C26.0232 25.3903 27.4919 24.905 29 24.9088ZM50.2941 22.3289C49.1422 21.3278 44.4407 25.2359 42.9617 27.1684C42.0627 28.1997 41.5036 29.6172 41.5036 31.1809C41.5036 34.3256 43.754 36.8753 46.5229 36.8753C48.6295 36.8753 50.4321 35.4102 51.178 33.3269C52.6268 29.5801 52.7069 24.4239 50.2941 22.3289ZM7.70351 22.3289C5.29419 24.4239 5.37191 29.5801 6.82307 33.3269C7.56895 35.4102 9.37043 36.8753 11.4758 36.8753C14.2471 36.8753 16.4952 34.3256 16.4952 31.1809C16.4952 29.6172 15.9372 28.1997 15.0382 27.1684C13.558 25.2359 8.85771 21.3278 7.70351 22.3289ZM35.1886 1.7888C46.8906 3.77472 46.0694 23.4831 36.7 21.8951C33.9972 21.4357 31.9904 18.9742 31.6854 16.0336C31.3756 13.0431 30.6785 1.02552 35.1886 1.7888ZM22.8114 1.7888C27.3226 1.02436 26.6243 13.042 26.3146 16.0324C26.0095 18.9742 24.005 21.4346 21.3022 21.8939C11.9306 23.4843 11.1104 3.77472 22.8114 1.7888Z" fill="#CF976F"/>
</svg>
