<svg width="68" height="68" viewBox="0 0 68 68" fill="none" xmlns="http://www.w3.org/2000/svg">
<path d="M59.727 19.8333C59.2374 18.985 58.5364 18.2782 57.6922 17.7816C56.848 17.285 55.8896 17.0157 54.9103 17H18.6437L17.0003 10.5966C16.8343 9.97849 16.4639 9.43479 15.9494 9.05407C15.4349 8.67335 14.8067 8.47804 14.167 8.49995H8.50033C7.74888 8.49995 7.02821 8.79846 6.49686 9.32982C5.9655 9.86117 5.66699 10.5818 5.66699 11.3333C5.66699 12.0847 5.9655 12.8054 6.49686 13.3368C7.02821 13.8681 7.74888 14.1666 8.50033 14.1666H12.0137L19.8337 43.2366C19.9997 43.8547 20.3701 44.3984 20.8846 44.7792C21.3991 45.1599 22.0273 45.3552 22.667 45.3333H48.167C48.6902 45.3317 49.2028 45.1853 49.6479 44.9102C50.093 44.6351 50.4532 44.2422 50.6887 43.775L59.982 25.1883C60.3848 24.344 60.5723 23.4131 60.5278 22.4787C60.4833 21.5443 60.2082 20.6355 59.727 19.8333Z" fill="#09B2D7"/>
<path d="M21.25 59.5C23.5972 59.5 25.5 57.5972 25.5 55.25C25.5 52.9028 23.5972 51 21.25 51C18.9028 51 17 52.9028 17 55.25C17 57.5972 18.9028 59.5 21.25 59.5Z" fill="#09B2D7"/>
<path d="M49.584 59.5C51.9312 59.5 53.834 57.5972 53.834 55.25C53.834 52.9028 51.9312 51 49.584 51C47.2368 51 45.334 52.9028 45.334 55.25C45.334 57.5972 47.2368 59.5 49.584 59.5Z" fill="#09B2D7"/>
</svg>
