<svg width="45" height="45" viewBox="0 0 45 45" fill="none" xmlns="http://www.w3.org/2000/svg">
<path d="M2.8125 33.7505C2.81492 34.9313 3.06671 36.0983 3.55138 37.175C4.03606 38.2517 4.74268 39.2139 5.625 39.9987V43.5943C5.625 43.9672 5.77316 44.3249 6.03688 44.5886C6.3006 44.8524 6.65829 45.0005 7.03125 45.0005H9.84375C10.2167 45.0005 10.5744 44.8524 10.8381 44.5886C11.1018 44.3249 11.25 43.9672 11.25 43.5943V42.188H33.75V43.5943C33.75 43.9672 33.8982 44.3249 34.1619 44.5886C34.4256 44.8524 34.7833 45.0005 35.1562 45.0005H37.9688C38.3417 45.0005 38.6994 44.8524 38.9631 44.5886C39.2268 44.3249 39.375 43.9672 39.375 43.5943V39.9987C40.2573 39.2139 40.9639 38.2517 41.4486 37.175C41.9333 36.0983 42.1851 34.9313 42.1875 33.7505V29.5318H2.8125V33.7505ZM43.5938 22.5005H7.03125V6.08693C7.03205 5.71785 7.14214 5.35727 7.34762 5.05068C7.5531 4.74409 7.84478 4.50522 8.18586 4.3642C8.52694 4.22318 8.90214 4.18633 9.26414 4.25829C9.62614 4.33026 9.95872 4.50782 10.2199 4.76857L11.9136 6.46135C10.7596 9.08752 11.2447 11.6566 12.6712 13.4689L12.6562 13.4838C12.3935 13.7474 12.246 14.1044 12.246 14.4765C12.246 14.8487 12.3935 15.2057 12.6562 15.4693L13.6503 16.4633C13.7809 16.5939 13.9359 16.6975 14.1066 16.7682C14.2772 16.8389 14.4601 16.8753 14.6448 16.8753C14.8295 16.8753 15.0124 16.8389 15.183 16.7682C15.3536 16.6975 15.5087 16.5939 15.6393 16.4633L24.9003 7.20226C25.0309 7.07168 25.1345 6.91664 25.2052 6.746C25.2759 6.57537 25.3123 6.39248 25.3123 6.20778C25.3123 6.02308 25.2759 5.84019 25.2052 5.66956C25.1345 5.49892 25.0309 5.34388 24.9003 5.2133L23.9062 4.21925C23.6426 3.95573 23.285 3.8077 22.9122 3.8077C22.5394 3.8077 22.1819 3.95573 21.9182 4.21925L21.9032 4.2342C20.0909 2.80773 17.5236 2.32258 14.8957 3.47658L13.2029 1.78293C12.3517 0.931624 11.2672 0.351867 10.0865 0.116979C8.90575 -0.117908 7.68189 0.00262391 6.56968 0.463333C5.45747 0.924041 4.50687 1.70423 3.83809 2.70523C3.16931 3.70623 2.8124 4.88308 2.8125 6.08693V22.5005H1.40625C1.03329 22.5005 0.675604 22.6487 0.411881 22.9124C0.148158 23.1761 0 23.5338 0 23.9068L0 25.313C0 25.686 0.148158 26.0437 0.411881 26.3074C0.675604 26.5711 1.03329 26.7193 1.40625 26.7193H43.5938C43.9667 26.7193 44.3244 26.5711 44.5881 26.3074C44.8518 26.0437 45 25.686 45 25.313V23.9068C45 23.5338 44.8518 23.1761 44.5881 22.9124C44.3244 22.6487 43.9667 22.5005 43.5938 22.5005Z" fill="#09B2D7"/>
</svg>
