<svg width="40" height="40" viewBox="0 0 40 40" fill="none" xmlns="http://www.w3.org/2000/svg">
<path d="M15 0.694037C15.244 0.990569 15.3935 1.35347 15.4292 1.73584C15.4648 2.11822 15.385 2.5025 15.2 2.83904C13.7546 5.49273 12.9998 8.46727 13.005 11.489C13.005 21.5415 21.2 29.6815 31.3 29.6815C32.6175 29.6815 33.9 29.544 35.1325 29.2815C35.5103 29.1997 35.9039 29.231 36.264 29.3715C36.6241 29.512 36.9349 29.7555 37.1575 30.0715C37.3925 30.4002 37.5123 30.7972 37.4983 31.201C37.4842 31.6047 37.3372 31.9925 37.08 32.304C35.1192 34.7126 32.6456 36.6533 29.8396 37.9845C27.0335 39.3157 23.9658 40.004 20.86 39.999C9.335 39.999 0 30.714 0 19.274C0 10.664 5.285 3.27904 12.81 0.149037C13.1848 -0.0093831 13.601 -0.0418982 13.9959 0.0563764C14.3908 0.154651 14.7431 0.378409 15 0.694037V0.694037Z" fill="white"/>
<path d="M26.985 7.87001C27.0209 7.76175 27.0899 7.66754 27.1824 7.60076C27.2748 7.53399 27.386 7.49805 27.5 7.49805C27.6141 7.49805 27.7252 7.53399 27.8177 7.60076C27.9101 7.66754 27.9792 7.76175 28.015 7.87001L28.9825 10.775C29.415 12.07 30.43 13.085 31.725 13.5175L34.63 14.485C34.7383 14.5209 34.8325 14.5899 34.8993 14.6824C34.966 14.7748 35.002 14.886 35.002 15C35.002 15.1141 34.966 15.2252 34.8993 15.3177C34.8325 15.4101 34.7383 15.4792 34.63 15.515L31.725 16.4825C31.0863 16.6953 30.506 17.0539 30.0299 17.5299C29.5539 18.006 29.1953 18.5863 28.9825 19.225L28.015 22.13C27.9792 22.2383 27.9101 22.3325 27.8177 22.3993C27.7252 22.466 27.6141 22.502 27.5 22.502C27.386 22.502 27.2748 22.466 27.1824 22.3993C27.0899 22.3325 27.0209 22.2383 26.985 22.13L26.0175 19.225C25.8047 18.5863 25.4461 18.006 24.9701 17.5299C24.4941 17.0539 23.9137 16.6953 23.275 16.4825L20.37 15.515C20.2618 15.4792 20.1675 15.4101 20.1008 15.3177C20.034 15.2252 19.998 15.1141 19.998 15C19.998 14.886 20.034 14.7748 20.1008 14.6824C20.1675 14.5899 20.2618 14.5209 20.37 14.485L23.275 13.5175C23.9137 13.3047 24.4941 12.9461 24.9701 12.4701C25.4461 11.9941 25.8047 11.4137 26.0175 10.775L26.985 7.87001Z" fill="white"/>
</svg>
