<svg width="40" height="40" viewBox="0 0 40 40" fill="none" xmlns="http://www.w3.org/2000/svg">
<path d="M15 0.694037C15.244 0.990569 15.3935 1.35347 15.4292 1.73584C15.4648 2.11822 15.385 2.5025 15.2 2.83904C13.7546 5.49273 12.9998 8.46727 13.005 11.489C13.005 21.5415 21.2 29.6815 31.3 29.6815C32.6175 29.6815 33.9 29.544 35.1325 29.2815C35.5103 29.1997 35.9039 29.231 36.264 29.3715C36.6241 29.512 36.9349 29.7555 37.1575 30.0715C37.3925 30.4002 37.5123 30.7972 37.4983 31.201C37.4842 31.6047 37.3372 31.9925 37.08 32.304C35.1192 34.7126 32.6456 36.6533 29.8396 37.9845C27.0335 39.3157 23.9658 40.004 20.86 39.999C9.335 39.999 0 30.714 0 19.274C0 10.664 5.285 3.27904 12.81 0.149037C13.1848 -0.0093831 13.601 -0.0418982 13.9959 0.0563764C14.3908 0.154651 14.7431 0.378409 15 0.694037V0.694037Z" fill="white"/>
<path d="M26.985 7.87016C27.0209 7.7619 27.0899 7.66769 27.1824 7.60091C27.2748 7.53414 27.386 7.4982 27.5 7.4982C27.6141 7.4982 27.7252 7.53414 27.8177 7.60091C27.9101 7.66769 27.9792 7.7619 28.015 7.87016L28.9825 10.7752C29.415 12.0702 30.43 13.0852 31.725 13.5177L34.63 14.4852C34.7383 14.521 34.8325 14.5901 34.8993 14.6825C34.966 14.775 35.002 14.8861 35.002 15.0002C35.002 15.1142 34.966 15.2254 34.8993 15.3178C34.8325 15.4103 34.7383 15.4793 34.63 15.5152L31.725 16.4827C31.0863 16.6955 30.506 17.0541 30.0299 17.5301C29.5539 18.0061 29.1953 18.5865 28.9825 19.2252L28.015 22.1302C27.9792 22.2384 27.9101 22.3326 27.8177 22.3994C27.7252 22.4662 27.6141 22.5021 27.5 22.5021C27.386 22.5021 27.2748 22.4662 27.1824 22.3994C27.0899 22.3326 27.0209 22.2384 26.985 22.1302L26.0175 19.2252C25.8047 18.5865 25.4461 18.0061 24.9701 17.5301C24.4941 17.0541 23.9137 16.6955 23.275 16.4827L20.37 15.5152C20.2618 15.4793 20.1675 15.4103 20.1008 15.3178C20.034 15.2254 19.998 15.1142 19.998 15.0002C19.998 14.8861 20.034 14.775 20.1008 14.6825C20.1675 14.5901 20.2618 14.521 20.37 14.4852L23.275 13.5177C23.9137 13.3049 24.4941 12.9463 24.9701 12.4702C25.4461 11.9942 25.8047 11.4139 26.0175 10.7752L26.985 7.87016ZM34.6575 0.247663C34.6822 0.176479 34.7284 0.114753 34.7898 0.0710668C34.8512 0.027381 34.9247 0.00390625 35 0.00390625C35.0754 0.00390625 35.1488 0.027381 35.2102 0.0710668C35.2716 0.114753 35.3178 0.176479 35.3425 0.247663L35.9875 2.18266C36.275 3.04766 36.9525 3.72516 37.8175 4.01266L39.7525 4.65766C39.8237 4.68234 39.8854 4.72859 39.9291 4.78997C39.9728 4.85135 39.9963 4.92482 39.9963 5.00016C39.9963 5.0755 39.9728 5.14897 39.9291 5.21036C39.8854 5.27174 39.8237 5.31798 39.7525 5.34266L37.8175 5.98766C37.3912 6.12947 37.0039 6.3687 36.6862 6.68637C36.3686 7.00404 36.1293 7.39138 35.9875 7.81766L35.3425 9.75266C35.3178 9.82385 35.2716 9.88557 35.2102 9.92926C35.1488 9.97295 35.0754 9.99642 35 9.99642C34.9247 9.99642 34.8512 9.97295 34.7898 9.92926C34.7284 9.88557 34.6822 9.82385 34.6575 9.75266L34.0125 7.81766C33.8707 7.39138 33.6315 7.00404 33.3138 6.68637C32.9961 6.3687 32.6088 6.12947 32.1825 5.98766L30.2475 5.34266C30.1763 5.31798 30.1146 5.27174 30.0709 5.21036C30.0272 5.14897 30.0038 5.0755 30.0038 5.00016C30.0038 4.92482 30.0272 4.85135 30.0709 4.78997C30.1146 4.72859 30.1763 4.68234 30.2475 4.65766L32.1825 4.01266C33.0475 3.72516 33.725 3.04766 34.0125 2.18266L34.6575 0.250163V0.247663Z" fill="white"/>
</svg>
